0
SECTION
2
HEADER
9
$INSUNITS
70
1
0
ENDSEC
0
SECTION
2
TABLES
0
TABLE
2
LTYPE
0
LTYPE
72
65
70
64
2
CONTINUOUS
3
______
73
0
40
0
0
ENDTAB
0
TABLE
2
LAYER
0
ENDTAB
0
ENDSEC
0
SECTION
2
ENTITIES
0
LINE
8
front_outsideCutPath
10
0
20
7.061
11
0
21
6.727375
0
LINE
8
front_outsideCutPath
10
0
20
6.727375
11
0.118
21
6.727375
0
LINE
8
front_outsideCutPath
10
0.118
20
6.727375
11
0.118
21
6.476625
0
LINE
8
front_outsideCutPath
10
0.118
20
6.476625
11
0
21
6.476625
0
LINE
8
front_outsideCutPath
10
0
20
6.476625
11
0
21
6.225875
0
LINE
8
front_outsideCutPath
10
0
20
6.225875
11
0.118
21
6.225875
0
LINE
8
front_outsideCutPath
10
0.118
20
6.225875
11
0.118
21
5.975125
0
LINE
8
front_outsideCutPath
10
0.118
20
5.975125
11
0
21
5.975125
0
LINE
8
front_outsideCutPath
10
0
20
5.975125
11
0
21
5.724375
0
LINE
8
front_outsideCutPath
10
0
20
5.724375
11
0.118
21
5.724375
0
LINE
8
front_outsideCutPath
10
0.118
20
5.724375
11
0.118
21
5.473625
0
LINE
8
front_outsideCutPath
10
0.118
20
5.473625
11
0
21
5.473625
0
LINE
8
front_outsideCutPath
10
0
20
5.473625
11
0
21
5.222875
0
LINE
8
front_outsideCutPath
10
0
20
5.222875
11
0.118
21
5.222875
0
LINE
8
front_outsideCutPath
10
0.118
20
5.222875
11
0.118
21
4.972125
0
LINE
8
front_outsideCutPath
10
0.118
20
4.972125
11
0
21
4.972125
0
LINE
8
front_outsideCutPath
10
0
20
4.972125
11
0
21
4.721375
0
LINE
8
front_outsideCutPath
10
0
20
4.721375
11
0.118
21
4.721375
0
LINE
8
front_outsideCutPath
10
0.118
20
4.721375
11
0.118
21
4.470625
0
LINE
8
front_outsideCutPath
10
0.118
20
4.470625
11
0
21
4.470625
0
LINE
8
front_outsideCutPath
10
0
20
4.470625
11
0
21
4.219875
0
LINE
8
front_outsideCutPath
10
0
20
4.219875
11
0.118
21
4.219875
0
LINE
8
front_outsideCutPath
10
0.118
20
4.219875
11
0.118
21
3.969125
0
LINE
8
front_outsideCutPath
10
0.118
20
3.969125
11
0
21
3.969125
0
LINE
8
front_outsideCutPath
10
0
20
3.969125
11
0
21
3.718375
0
LINE
8
front_outsideCutPath
10
0
20
3.718375
11
0.118
21
3.718375
0
LINE
8
front_outsideCutPath
10
0.118
20
3.718375
11
0.118
21
3.467625
0
LINE
8
front_outsideCutPath
10
0.118
20
3.467625
11
0
21
3.467625
0
LINE
8
front_outsideCutPath
10
0
20
3.467625
11
0
21
3.216875
0
LINE
8
front_outsideCutPath
10
0
20
3.216875
11
0.118
21
3.216875
0
LINE
8
front_outsideCutPath
10
0.118
20
3.216875
11
0.118
21
2.966125
0
LINE
8
front_outsideCutPath
10
0.118
20
2.966125
11
0
21
2.966125
0
LINE
8
front_outsideCutPath
10
0
20
2.966125
11
0
21
2.715375
0
LINE
8
front_outsideCutPath
10
0
20
2.715375
11
0.118
21
2.715375
0
LINE
8
front_outsideCutPath
10
0.118
20
2.715375
11
0.118
21
2.464625
0
LINE
8
front_outsideCutPath
10
0.118
20
2.464625
11
0
21
2.464625
0
LINE
8
front_outsideCutPath
10
0
20
2.464625
11
0
21
2.213875
0
LINE
8
front_outsideCutPath
10
0
20
2.213875
11
0.118
21
2.213875
0
LINE
8
front_outsideCutPath
10
0.118
20
2.213875
11
0.118
21
1.963125
0
LINE
8
front_outsideCutPath
10
0.118
20
1.963125
11
0
21
1.963125
0
LINE
8
front_outsideCutPath
10
0
20
1.963125
11
0
21
1.712375
0
LINE
8
front_outsideCutPath
10
0
20
1.712375
11
0.118
21
1.712375
0
LINE
8
front_outsideCutPath
10
0.118
20
1.712375
11
0.118
21
1.461625
0
LINE
8
front_outsideCutPath
10
0.118
20
1.461625
11
0
21
1.461625
0
LINE
8
front_outsideCutPath
10
0
20
1.461625
11
0
21
1.210875
0
LINE
8
front_outsideCutPath
10
0
20
1.210875
11
0.118
21
1.210875
0
LINE
8
front_outsideCutPath
10
0.118
20
1.210875
11
0.118
21
0.960125
0
LINE
8
front_outsideCutPath
10
0.118
20
0.960125
11
0
21
0.960125
0
LINE
8
front_outsideCutPath
10
0
20
0.960125
11
0
21
0.709375
0
LINE
8
front_outsideCutPath
10
0
20
0.709375
11
0.118
21
0.709375
0
LINE
8
front_outsideCutPath
10
0.118
20
0.709375
11
0.118
21
0.458625
0
LINE
8
front_outsideCutPath
10
0.118
20
0.458625
11
0
21
0.458625
0
LINE
8
front_outsideCutPath
10
0
20
0.458625
11
0
21
0.125
0
LINE
8
front_outsideCutPath
10
0
20
0.125
11
0.390375
21
0.125
0
LINE
8
front_outsideCutPath
10
0.390375
20
0.125
11
0.390375
21
0.243
0
LINE
8
front_outsideCutPath
10
0.390375
20
0.243
11
0.641125
21
0.243
0
LINE
8
front_outsideCutPath
10
0.641125
20
0.243
11
0.641125
21
0.125
0
LINE
8
front_outsideCutPath
10
0.641125
20
0.125
11
0.891875
21
0.125
0
LINE
8
front_outsideCutPath
10
0.891875
20
0.125
11
0.891875
21
0.243
0
LINE
8
front_outsideCutPath
10
0.891875
20
0.243
11
1.142625
21
0.243
0
LINE
8
front_outsideCutPath
10
1.142625
20
0.243
11
1.142625
21
0.125
0
LINE
8
front_outsideCutPath
10
1.142625
20
0.125
11
1.393375
21
0.125
0
LINE
8
front_outsideCutPath
10
1.393375
20
0.125
11
1.393375
21
0.243
0
LINE
8
front_outsideCutPath
10
1.393375
20
0.243
11
1.644125
21
0.243
0
LINE
8
front_outsideCutPath
10
1.644125
20
0.243
11
1.644125
21
0.125
0
LINE
8
front_outsideCutPath
10
1.644125
20
0.125
11
1.894875
21
0.125
0
LINE
8
front_outsideCutPath
10
1.894875
20
0.125
11
1.894875
21
0.243
0
LINE
8
front_outsideCutPath
10
1.894875
20
0.243
11
2.145625
21
0.243
0
LINE
8
front_outsideCutPath
10
2.145625
20
0.243
11
2.145625
21
0.125
0
LINE
8
front_outsideCutPath
10
2.145625
20
0.125
11
2.396375
21
0.125
0
LINE
8
front_outsideCutPath
10
2.396375
20
0.125
11
2.536
21
0.125
0
LINE
8
front_outsideCutPath
10
2.536
20
0.125
11
2.536
21
0.458625
0
LINE
8
front_outsideCutPath
10
2.536
20
0.458625
11
2.418
21
0.458625
0
LINE
8
front_outsideCutPath
10
2.418
20
0.458625
11
2.418
21
0.709375
0
LINE
8
front_outsideCutPath
10
2.418
20
0.709375
11
2.536
21
0.709375
0
LINE
8
front_outsideCutPath
10
2.536
20
0.709375
11
2.536
21
0.960125
0
LINE
8
front_outsideCutPath
10
2.536
20
0.960125
11
2.418
21
0.960125
0
LINE
8
front_outsideCutPath
10
2.418
20
0.960125
11
2.418
21
1.210875
0
LINE
8
front_outsideCutPath
10
2.418
20
1.210875
11
2.536
21
1.210875
0
LINE
8
front_outsideCutPath
10
2.536
20
1.210875
11
2.536
21
1.461625
0
LINE
8
front_outsideCutPath
10
2.536
20
1.461625
11
2.418
21
1.461625
0
LINE
8
front_outsideCutPath
10
2.418
20
1.461625
11
2.418
21
1.712375
0
LINE
8
front_outsideCutPath
10
2.418
20
1.712375
11
2.536
21
1.712375
0
LINE
8
front_outsideCutPath
10
2.536
20
1.712375
11
2.536
21
1.963125
0
LINE
8
front_outsideCutPath
10
2.536
20
1.963125
11
2.418
21
1.963125
0
LINE
8
front_outsideCutPath
10
2.418
20
1.963125
11
2.418
21
2.213875
0
LINE
8
front_outsideCutPath
10
2.418
20
2.213875
11
2.536
21
2.213875
0
LINE
8
front_outsideCutPath
10
2.536
20
2.213875
11
2.536
21
2.464625
0
LINE
8
front_outsideCutPath
10
2.536
20
2.464625
11
2.418
21
2.464625
0
LINE
8
front_outsideCutPath
10
2.418
20
2.464625
11
2.418
21
2.715375
0
LINE
8
front_outsideCutPath
10
2.418
20
2.715375
11
2.536
21
2.715375
0
LINE
8
front_outsideCutPath
10
2.536
20
2.715375
11
2.536
21
2.966125
0
LINE
8
front_outsideCutPath
10
2.536
20
2.966125
11
2.418
21
2.966125
0
LINE
8
front_outsideCutPath
10
2.418
20
2.966125
11
2.418
21
3.216875
0
LINE
8
front_outsideCutPath
10
2.418
20
3.216875
11
2.536
21
3.216875
0
LINE
8
front_outsideCutPath
10
2.536
20
3.216875
11
2.536
21
3.467625
0
LINE
8
front_outsideCutPath
10
2.536
20
3.467625
11
2.418
21
3.467625
0
LINE
8
front_outsideCutPath
10
2.418
20
3.467625
11
2.418
21
3.718375
0
LINE
8
front_outsideCutPath
10
2.418
20
3.718375
11
2.536
21
3.718375
0
LINE
8
front_outsideCutPath
10
2.536
20
3.718375
11
2.536
21
3.969125
0
LINE
8
front_outsideCutPath
10
2.536
20
3.969125
11
2.418
21
3.969125
0
LINE
8
front_outsideCutPath
10
2.418
20
3.969125
11
2.418
21
4.219875
0
LINE
8
front_outsideCutPath
10
2.418
20
4.219875
11
2.536
21
4.219875
0
LINE
8
front_outsideCutPath
10
2.536
20
4.219875
11
2.536
21
4.470625
0
LINE
8
front_outsideCutPath
10
2.536
20
4.470625
11
2.418
21
4.470625
0
LINE
8
front_outsideCutPath
10
2.418
20
4.470625
11
2.418
21
4.721375
0
LINE
8
front_outsideCutPath
10
2.418
20
4.721375
11
2.536
21
4.721375
0
LINE
8
front_outsideCutPath
10
2.536
20
4.721375
11
2.536
21
4.972125
0
LINE
8
front_outsideCutPath
10
2.536
20
4.972125
11
2.418
21
4.972125
0
LINE
8
front_outsideCutPath
10
2.418
20
4.972125
11
2.418
21
5.222875
0
LINE
8
front_outsideCutPath
10
2.418
20
5.222875
11
2.536
21
5.222875
0
LINE
8
front_outsideCutPath
10
2.536
20
5.222875
11
2.536
21
5.473625
0
LINE
8
front_outsideCutPath
10
2.536
20
5.473625
11
2.418
21
5.473625
0
LINE
8
front_outsideCutPath
10
2.418
20
5.473625
11
2.418
21
5.724375
0
LINE
8
front_outsideCutPath
10
2.418
20
5.724375
11
2.536
21
5.724375
0
LINE
8
front_outsideCutPath
10
2.536
20
5.724375
11
2.536
21
5.975125
0
LINE
8
front_outsideCutPath
10
2.536
20
5.975125
11
2.418
21
5.975125
0
LINE
8
front_outsideCutPath
10
2.418
20
5.975125
11
2.418
21
6.225875
0
LINE
8
front_outsideCutPath
10
2.418
20
6.225875
11
2.536
21
6.225875
0
LINE
8
front_outsideCutPath
10
2.536
20
6.225875
11
2.536
21
6.476625
0
LINE
8
front_outsideCutPath
10
2.536
20
6.476625
11
2.418
21
6.476625
0
LINE
8
front_outsideCutPath
10
2.418
20
6.476625
11
2.418
21
6.727375
0
LINE
8
front_outsideCutPath
10
2.418
20
6.727375
11
2.536
21
6.727375
0
LINE
8
front_outsideCutPath
10
2.536
20
6.727375
11
2.536
21
7.061
0
LINE
8
front_outsideCutPath
10
2.536
20
7.061
11
2.145625
21
7.061
0
LINE
8
front_outsideCutPath
10
2.145625
20
7.061
11
2.145625
21
6.943
0
LINE
8
front_outsideCutPath
10
2.145625
20
6.943
11
1.894875
21
6.943
0
LINE
8
front_outsideCutPath
10
1.894875
20
6.943
11
1.894875
21
7.061
0
LINE
8
front_outsideCutPath
10
1.894875
20
7.061
11
1.644125
21
7.061
0
LINE
8
front_outsideCutPath
10
1.644125
20
7.061
11
1.644125
21
6.943
0
LINE
8
front_outsideCutPath
10
1.644125
20
6.943
11
1.393375
21
6.943
0
LINE
8
front_outsideCutPath
10
1.393375
20
6.943
11
1.393375
21
7.061
0
LINE
8
front_outsideCutPath
10
1.393375
20
7.061
11
1.142625
21
7.061
0
LINE
8
front_outsideCutPath
10
1.142625
20
7.061
11
1.142625
21
6.943
0
LINE
8
front_outsideCutPath
10
1.142625
20
6.943
11
0.891875
21
6.943
0
LINE
8
front_outsideCutPath
10
0.891875
20
6.943
11
0.891875
21
7.061
0
LINE
8
front_outsideCutPath
10
0.891875
20
7.061
11
0.641125
21
7.061
0
LINE
8
front_outsideCutPath
10
0.641125
20
7.061
11
0.641125
21
6.943
0
LINE
8
front_outsideCutPath
10
0.641125
20
6.943
11
0.390375
21
6.943
0
LINE
8
front_outsideCutPath
10
0.390375
20
6.943
11
0.390375
21
7.061
0
LINE
8
front_outsideCutPath
10
0.390375
20
7.061
11
0.139625
21
7.061
0
LINE
8
front_outsideCutPath
10
0.139625
20
7.061
11
0
21
7.061
0
LINE
8
left_outsideCutPath
10
2.779
20
7.061
11
2.779
21
6.727375
0
LINE
8
left_outsideCutPath
10
2.779
20
6.727375
11
2.661
21
6.727375
0
LINE
8
left_outsideCutPath
10
2.661
20
6.727375
11
2.661
21
6.476625
0
LINE
8
left_outsideCutPath
10
2.661
20
6.476625
11
2.779
21
6.476625
0
LINE
8
left_outsideCutPath
10
2.779
20
6.476625
11
2.779
21
6.225875
0
LINE
8
left_outsideCutPath
10
2.779
20
6.225875
11
2.661
21
6.225875
0
LINE
8
left_outsideCutPath
10
2.661
20
6.225875
11
2.661
21
5.975125
0
LINE
8
left_outsideCutPath
10
2.661
20
5.975125
11
2.779
21
5.975125
0
LINE
8
left_outsideCutPath
10
2.779
20
5.975125
11
2.779
21
5.724375
0
LINE
8
left_outsideCutPath
10
2.779
20
5.724375
11
2.661
21
5.724375
0
LINE
8
left_outsideCutPath
10
2.661
20
5.724375
11
2.661
21
5.473625
0
LINE
8
left_outsideCutPath
10
2.661
20
5.473625
11
2.779
21
5.473625
0
LINE
8
left_outsideCutPath
10
2.779
20
5.473625
11
2.779
21
5.222875
0
LINE
8
left_outsideCutPath
10
2.779
20
5.222875
11
2.661
21
5.222875
0
LINE
8
left_outsideCutPath
10
2.661
20
5.222875
11
2.661
21
4.972125
0
LINE
8
left_outsideCutPath
10
2.661
20
4.972125
11
2.779
21
4.972125
0
LINE
8
left_outsideCutPath
10
2.779
20
4.972125
11
2.779
21
4.721375
0
LINE
8
left_outsideCutPath
10
2.779
20
4.721375
11
2.661
21
4.721375
0
LINE
8
left_outsideCutPath
10
2.661
20
4.721375
11
2.661
21
4.470625
0
LINE
8
left_outsideCutPath
10
2.661
20
4.470625
11
2.779
21
4.470625
0
LINE
8
left_outsideCutPath
10
2.779
20
4.470625
11
2.779
21
4.219875
0
LINE
8
left_outsideCutPath
10
2.779
20
4.219875
11
2.661
21
4.219875
0
LINE
8
left_outsideCutPath
10
2.661
20
4.219875
11
2.661
21
3.969125
0
LINE
8
left_outsideCutPath
10
2.661
20
3.969125
11
2.779
21
3.969125
0
LINE
8
left_outsideCutPath
10
2.779
20
3.969125
11
2.779
21
3.718375
0
LINE
8
left_outsideCutPath
10
2.779
20
3.718375
11
2.661
21
3.718375
0
LINE
8
left_outsideCutPath
10
2.661
20
3.718375
11
2.661
21
3.467625
0
LINE
8
left_outsideCutPath
10
2.661
20
3.467625
11
2.779
21
3.467625
0
LINE
8
left_outsideCutPath
10
2.779
20
3.467625
11
2.779
21
3.216875
0
LINE
8
left_outsideCutPath
10
2.779
20
3.216875
11
2.661
21
3.216875
0
LINE
8
left_outsideCutPath
10
2.661
20
3.216875
11
2.661
21
2.966125
0
LINE
8
left_outsideCutPath
10
2.661
20
2.966125
11
2.779
21
2.966125
0
LINE
8
left_outsideCutPath
10
2.779
20
2.966125
11
2.779
21
2.715375
0
LINE
8
left_outsideCutPath
10
2.779
20
2.715375
11
2.661
21
2.715375
0
LINE
8
left_outsideCutPath
10
2.661
20
2.715375
11
2.661
21
2.464625
0
LINE
8
left_outsideCutPath
10
2.661
20
2.464625
11
2.779
21
2.464625
0
LINE
8
left_outsideCutPath
10
2.779
20
2.464625
11
2.779
21
2.213875
0
LINE
8
left_outsideCutPath
10
2.779
20
2.213875
11
2.661
21
2.213875
0
LINE
8
left_outsideCutPath
10
2.661
20
2.213875
11
2.661
21
1.963125
0
LINE
8
left_outsideCutPath
10
2.661
20
1.963125
11
2.779
21
1.963125
0
LINE
8
left_outsideCutPath
10
2.779
20
1.963125
11
2.779
21
1.712375
0
LINE
8
left_outsideCutPath
10
2.779
20
1.712375
11
2.661
21
1.712375
0
LINE
8
left_outsideCutPath
10
2.661
20
1.712375
11
2.661
21
1.461625
0
LINE
8
left_outsideCutPath
10
2.661
20
1.461625
11
2.779
21
1.461625
0
LINE
8
left_outsideCutPath
10
2.779
20
1.461625
11
2.779
21
1.210875
0
LINE
8
left_outsideCutPath
10
2.779
20
1.210875
11
2.661
21
1.210875
0
LINE
8
left_outsideCutPath
10
2.661
20
1.210875
11
2.661
21
0.960125
0
LINE
8
left_outsideCutPath
10
2.661
20
0.960125
11
2.779
21
0.960125
0
LINE
8
left_outsideCutPath
10
2.779
20
0.960125
11
2.779
21
0.709375
0
LINE
8
left_outsideCutPath
10
2.779
20
0.709375
11
2.661
21
0.709375
0
LINE
8
left_outsideCutPath
10
2.661
20
0.709375
11
2.661
21
0.458625
0
LINE
8
left_outsideCutPath
10
2.661
20
0.458625
11
2.779
21
0.458625
0
LINE
8
left_outsideCutPath
10
2.779
20
0.458625
11
2.779
21
0.125
0
LINE
8
left_outsideCutPath
10
2.779
20
0.125
11
2.900625
21
0.125
0
LINE
8
left_outsideCutPath
10
2.900625
20
0.125
11
2.900625
21
0.243
0
LINE
8
left_outsideCutPath
10
2.900625
20
0.243
11
3.151375
21
0.243
0
LINE
8
left_outsideCutPath
10
3.151375
20
0.243
11
3.151375
21
0.125
0
LINE
8
left_outsideCutPath
10
3.151375
20
0.125
11
3.402125
21
0.125
0
LINE
8
left_outsideCutPath
10
3.402125
20
0.125
11
3.402125
21
0.243
0
LINE
8
left_outsideCutPath
10
3.402125
20
0.243
11
3.652875
21
0.243
0
LINE
8
left_outsideCutPath
10
3.652875
20
0.243
11
3.652875
21
0.125
0
LINE
8
left_outsideCutPath
10
3.652875
20
0.125
11
3.903625
21
0.125
0
LINE
8
left_outsideCutPath
10
3.903625
20
0.125
11
3.903625
21
0.243
0
LINE
8
left_outsideCutPath
10
3.903625
20
0.243
11
4.154375
21
0.243
0
LINE
8
left_outsideCutPath
10
4.154375
20
0.243
11
4.154375
21
0.125
0
LINE
8
left_outsideCutPath
10
4.154375
20
0.125
11
4.405125
21
0.125
0
LINE
8
left_outsideCutPath
10
4.405125
20
0.125
11
4.405125
21
0.243
0
LINE
8
left_outsideCutPath
10
4.405125
20
0.243
11
4.655875
21
0.243
0
LINE
8
left_outsideCutPath
10
4.655875
20
0.243
11
4.655875
21
0.125
0
LINE
8
left_outsideCutPath
10
4.655875
20
0.125
11
4.906625
21
0.125
0
LINE
8
left_outsideCutPath
10
4.906625
20
0.125
11
4.906625
21
0.243
0
LINE
8
left_outsideCutPath
10
4.906625
20
0.243
11
5.157375
21
0.243
0
LINE
8
left_outsideCutPath
10
5.157375
20
0.243
11
5.157375
21
0.125
0
LINE
8
left_outsideCutPath
10
5.157375
20
0.125
11
5.279
21
0.125
0
LINE
8
left_outsideCutPath
10
5.279
20
0.125
11
5.279
21
0.458625
0
LINE
8
left_outsideCutPath
10
5.279
20
0.458625
11
5.397
21
0.458625
0
LINE
8
left_outsideCutPath
10
5.397
20
0.458625
11
5.397
21
0.709375
0
LINE
8
left_outsideCutPath
10
5.397
20
0.709375
11
5.279
21
0.709375
0
LINE
8
left_outsideCutPath
10
5.279
20
0.709375
11
5.279
21
0.960125
0
LINE
8
left_outsideCutPath
10
5.279
20
0.960125
11
5.397
21
0.960125
0
LINE
8
left_outsideCutPath
10
5.397
20
0.960125
11
5.397
21
1.210875
0
LINE
8
left_outsideCutPath
10
5.397
20
1.210875
11
5.279
21
1.210875
0
LINE
8
left_outsideCutPath
10
5.279
20
1.210875
11
5.279
21
1.461625
0
LINE
8
left_outsideCutPath
10
5.279
20
1.461625
11
5.397
21
1.461625
0
LINE
8
left_outsideCutPath
10
5.397
20
1.461625
11
5.397
21
1.712375
0
LINE
8
left_outsideCutPath
10
5.397
20
1.712375
11
5.279
21
1.712375
0
LINE
8
left_outsideCutPath
10
5.279
20
1.712375
11
5.279
21
1.963125
0
LINE
8
left_outsideCutPath
10
5.279
20
1.963125
11
5.397
21
1.963125
0
LINE
8
left_outsideCutPath
10
5.397
20
1.963125
11
5.397
21
2.213875
0
LINE
8
left_outsideCutPath
10
5.397
20
2.213875
11
5.279
21
2.213875
0
LINE
8
left_outsideCutPath
10
5.279
20
2.213875
11
5.279
21
2.464625
0
LINE
8
left_outsideCutPath
10
5.279
20
2.464625
11
5.397
21
2.464625
0
LINE
8
left_outsideCutPath
10
5.397
20
2.464625
11
5.397
21
2.715375
0
LINE
8
left_outsideCutPath
10
5.397
20
2.715375
11
5.279
21
2.715375
0
LINE
8
left_outsideCutPath
10
5.279
20
2.715375
11
5.279
21
2.966125
0
LINE
8
left_outsideCutPath
10
5.279
20
2.966125
11
5.397
21
2.966125
0
LINE
8
left_outsideCutPath
10
5.397
20
2.966125
11
5.397
21
3.216875
0
LINE
8
left_outsideCutPath
10
5.397
20
3.216875
11
5.279
21
3.216875
0
LINE
8
left_outsideCutPath
10
5.279
20
3.216875
11
5.279
21
3.467625
0
LINE
8
left_outsideCutPath
10
5.279
20
3.467625
11
5.397
21
3.467625
0
LINE
8
left_outsideCutPath
10
5.397
20
3.467625
11
5.397
21
3.718375
0
LINE
8
left_outsideCutPath
10
5.397
20
3.718375
11
5.279
21
3.718375
0
LINE
8
left_outsideCutPath
10
5.279
20
3.718375
11
5.279
21
3.969125
0
LINE
8
left_outsideCutPath
10
5.279
20
3.969125
11
5.397
21
3.969125
0
LINE
8
left_outsideCutPath
10
5.397
20
3.969125
11
5.397
21
4.219875
0
LINE
8
left_outsideCutPath
10
5.397
20
4.219875
11
5.279
21
4.219875
0
LINE
8
left_outsideCutPath
10
5.279
20
4.219875
11
5.279
21
4.470625
0
LINE
8
left_outsideCutPath
10
5.279
20
4.470625
11
5.397
21
4.470625
0
LINE
8
left_outsideCutPath
10
5.397
20
4.470625
11
5.397
21
4.721375
0
LINE
8
left_outsideCutPath
10
5.397
20
4.721375
11
5.279
21
4.721375
0
LINE
8
left_outsideCutPath
10
5.279
20
4.721375
11
5.279
21
4.972125
0
LINE
8
left_outsideCutPath
10
5.279
20
4.972125
11
5.397
21
4.972125
0
LINE
8
left_outsideCutPath
10
5.397
20
4.972125
11
5.397
21
5.222875
0
LINE
8
left_outsideCutPath
10
5.397
20
5.222875
11
5.279
21
5.222875
0
LINE
8
left_outsideCutPath
10
5.279
20
5.222875
11
5.279
21
5.473625
0
LINE
8
left_outsideCutPath
10
5.279
20
5.473625
11
5.397
21
5.473625
0
LINE
8
left_outsideCutPath
10
5.397
20
5.473625
11
5.397
21
5.724375
0
LINE
8
left_outsideCutPath
10
5.397
20
5.724375
11
5.279
21
5.724375
0
LINE
8
left_outsideCutPath
10
5.279
20
5.724375
11
5.279
21
5.975125
0
LINE
8
left_outsideCutPath
10
5.279
20
5.975125
11
5.397
21
5.975125
0
LINE
8
left_outsideCutPath
10
5.397
20
5.975125
11
5.397
21
6.225875
0
LINE
8
left_outsideCutPath
10
5.397
20
6.225875
11
5.279
21
6.225875
0
LINE
8
left_outsideCutPath
10
5.279
20
6.225875
11
5.279
21
6.476625
0
LINE
8
left_outsideCutPath
10
5.279
20
6.476625
11
5.397
21
6.476625
0
LINE
8
left_outsideCutPath
10
5.397
20
6.476625
11
5.397
21
6.727375
0
LINE
8
left_outsideCutPath
10
5.397
20
6.727375
11
5.279
21
6.727375
0
LINE
8
left_outsideCutPath
10
5.279
20
6.727375
11
5.279
21
7.061
0
LINE
8
left_outsideCutPath
10
5.279
20
7.061
11
5.157375
21
7.061
0
LINE
8
left_outsideCutPath
10
5.157375
20
7.061
11
5.157375
21
6.943
0
LINE
8
left_outsideCutPath
10
5.157375
20
6.943
11
4.906625
21
6.943
0
LINE
8
left_outsideCutPath
10
4.906625
20
6.943
11
4.906625
21
7.061
0
LINE
8
left_outsideCutPath
10
4.906625
20
7.061
11
4.655875
21
7.061
0
LINE
8
left_outsideCutPath
10
4.655875
20
7.061
11
4.655875
21
6.943
0
LINE
8
left_outsideCutPath
10
4.655875
20
6.943
11
4.405125
21
6.943
0
LINE
8
left_outsideCutPath
10
4.405125
20
6.943
11
4.405125
21
7.061
0
LINE
8
left_outsideCutPath
10
4.405125
20
7.061
11
4.154375
21
7.061
0
LINE
8
left_outsideCutPath
10
4.154375
20
7.061
11
4.154375
21
6.943
0
LINE
8
left_outsideCutPath
10
4.154375
20
6.943
11
3.903625
21
6.943
0
LINE
8
left_outsideCutPath
10
3.903625
20
6.943
11
3.903625
21
7.061
0
LINE
8
left_outsideCutPath
10
3.903625
20
7.061
11
3.652875
21
7.061
0
LINE
8
left_outsideCutPath
10
3.652875
20
7.061
11
3.652875
21
6.943
0
LINE
8
left_outsideCutPath
10
3.652875
20
6.943
11
3.402125
21
6.943
0
LINE
8
left_outsideCutPath
10
3.402125
20
6.943
11
3.402125
21
7.061
0
LINE
8
left_outsideCutPath
10
3.402125
20
7.061
11
3.151375
21
7.061
0
LINE
8
left_outsideCutPath
10
3.151375
20
7.061
11
3.151375
21
6.943
0
LINE
8
left_outsideCutPath
10
3.151375
20
6.943
11
2.900625
21
6.943
0
LINE
8
left_outsideCutPath
10
2.900625
20
6.943
11
2.900625
21
7.061
0
LINE
8
left_outsideCutPath
10
2.900625
20
7.061
11
2.779
21
7.061
0
LINE
8
top_outsideCutPath
10
5.64
20
2.743
11
5.64
21
2.621375
0
LINE
8
top_outsideCutPath
10
5.64
20
2.621375
11
5.522
21
2.621375
0
LINE
8
top_outsideCutPath
10
5.522
20
2.621375
11
5.522
21
2.370625
0
LINE
8
top_outsideCutPath
10
5.522
20
2.370625
11
5.64
21
2.370625
0
LINE
8
top_outsideCutPath
10
5.64
20
2.370625
11
5.64
21
2.119875
0
LINE
8
top_outsideCutPath
10
5.64
20
2.119875
11
5.522
21
2.119875
0
LINE
8
top_outsideCutPath
10
5.522
20
2.119875
11
5.522
21
1.869125
0
LINE
8
top_outsideCutPath
10
5.522
20
1.869125
11
5.64
21
1.869125
0
LINE
8
top_outsideCutPath
10
5.64
20
1.869125
11
5.64
21
1.618375
0
LINE
8
top_outsideCutPath
10
5.64
20
1.618375
11
5.522
21
1.618375
0
LINE
8
top_outsideCutPath
10
5.522
20
1.618375
11
5.522
21
1.367625
0
LINE
8
top_outsideCutPath
10
5.522
20
1.367625
11
5.64
21
1.367625
0
LINE
8
top_outsideCutPath
10
5.64
20
1.367625
11
5.64
21
1.116875
0
LINE
8
top_outsideCutPath
10
5.64
20
1.116875
11
5.522
21
1.116875
0
LINE
8
top_outsideCutPath
10
5.522
20
1.116875
11
5.522
21
0.866125
0
LINE
8
top_outsideCutPath
10
5.522
20
0.866125
11
5.64
21
0.866125
0
LINE
8
top_outsideCutPath
10
5.64
20
0.866125
11
5.64
21
0.615375
0
LINE
8
top_outsideCutPath
10
5.64
20
0.615375
11
5.522
21
0.615375
0
LINE
8
top_outsideCutPath
10
5.522
20
0.615375
11
5.522
21
0.364625
0
LINE
8
top_outsideCutPath
10
5.522
20
0.364625
11
5.64
21
0.364625
0
LINE
8
top_outsideCutPath
10
5.64
20
0.364625
11
5.64
21
0.243
0
LINE
8
top_outsideCutPath
10
5.64
20
0.243
11
5.912375
21
0.243
0
LINE
8
top_outsideCutPath
10
5.912375
20
0.243
11
5.912375
21
0.125
0
LINE
8
top_outsideCutPath
10
5.912375
20
0.125
11
6.163125
21
0.125
0
LINE
8
top_outsideCutPath
10
6.163125
20
0.125
11
6.163125
21
0.243
0
LINE
8
top_outsideCutPath
10
6.163125
20
0.243
11
6.413875
21
0.243
0
LINE
8
top_outsideCutPath
10
6.413875
20
0.243
11
6.413875
21
0.125
0
LINE
8
top_outsideCutPath
10
6.413875
20
0.125
11
6.664625
21
0.125
0
LINE
8
top_outsideCutPath
10
6.664625
20
0.125
11
6.664625
21
0.243
0
LINE
8
top_outsideCutPath
10
6.664625
20
0.243
11
6.915375
21
0.243
0
LINE
8
top_outsideCutPath
10
6.915375
20
0.243
11
6.915375
21
0.125
0
LINE
8
top_outsideCutPath
10
6.915375
20
0.125
11
7.166125
21
0.125
0
LINE
8
top_outsideCutPath
10
7.166125
20
0.125
11
7.166125
21
0.243
0
LINE
8
top_outsideCutPath
10
7.166125
20
0.243
11
7.416875
21
0.243
0
LINE
8
top_outsideCutPath
10
7.416875
20
0.243
11
7.416875
21
0.125
0
LINE
8
top_outsideCutPath
10
7.416875
20
0.125
11
7.667625
21
0.125
0
LINE
8
top_outsideCutPath
10
7.667625
20
0.125
11
7.667625
21
0.243
0
LINE
8
top_outsideCutPath
10
7.667625
20
0.243
11
7.918375
21
0.243
0
LINE
8
top_outsideCutPath
10
7.918375
20
0.243
11
7.94
21
0.243
0
LINE
8
top_outsideCutPath
10
7.94
20
0.243
11
7.94
21
0.364625
0
LINE
8
top_outsideCutPath
10
7.94
20
0.364625
11
8.058
21
0.364625
0
LINE
8
top_outsideCutPath
10
8.058
20
0.364625
11
8.058
21
0.615375
0
LINE
8
top_outsideCutPath
10
8.058
20
0.615375
11
7.94
21
0.615375
0
LINE
8
top_outsideCutPath
10
7.94
20
0.615375
11
7.94
21
0.866125
0
LINE
8
top_outsideCutPath
10
7.94
20
0.866125
11
8.058
21
0.866125
0
LINE
8
top_outsideCutPath
10
8.058
20
0.866125
11
8.058
21
1.116875
0
LINE
8
top_outsideCutPath
10
8.058
20
1.116875
11
7.94
21
1.116875
0
LINE
8
top_outsideCutPath
10
7.94
20
1.116875
11
7.94
21
1.367625
0
LINE
8
top_outsideCutPath
10
7.94
20
1.367625
11
8.058
21
1.367625
0
LINE
8
top_outsideCutPath
10
8.058
20
1.367625
11
8.058
21
1.618375
0
LINE
8
top_outsideCutPath
10
8.058
20
1.618375
11
7.94
21
1.618375
0
LINE
8
top_outsideCutPath
10
7.94
20
1.618375
11
7.94
21
1.869125
0
LINE
8
top_outsideCutPath
10
7.94
20
1.869125
11
8.058
21
1.869125
0
LINE
8
top_outsideCutPath
10
8.058
20
1.869125
11
8.058
21
2.119875
0
LINE
8
top_outsideCutPath
10
8.058
20
2.119875
11
7.94
21
2.119875
0
LINE
8
top_outsideCutPath
10
7.94
20
2.119875
11
7.94
21
2.370625
0
LINE
8
top_outsideCutPath
10
7.94
20
2.370625
11
8.058
21
2.370625
0
LINE
8
top_outsideCutPath
10
8.058
20
2.370625
11
8.058
21
2.621375
0
LINE
8
top_outsideCutPath
10
8.058
20
2.621375
11
7.94
21
2.621375
0
LINE
8
top_outsideCutPath
10
7.94
20
2.621375
11
7.94
21
2.743
0
LINE
8
top_outsideCutPath
10
7.94
20
2.743
11
7.667625
21
2.743
0
LINE
8
top_outsideCutPath
10
7.667625
20
2.743
11
7.667625
21
2.861
0
LINE
8
top_outsideCutPath
10
7.667625
20
2.861
11
7.416875
21
2.861
0
LINE
8
top_outsideCutPath
10
7.416875
20
2.861
11
7.416875
21
2.743
0
LINE
8
top_outsideCutPath
10
7.416875
20
2.743
11
7.166125
21
2.743
0
LINE
8
top_outsideCutPath
10
7.166125
20
2.743
11
7.166125
21
2.861
0
LINE
8
top_outsideCutPath
10
7.166125
20
2.861
11
6.915375
21
2.861
0
LINE
8
top_outsideCutPath
10
6.915375
20
2.861
11
6.915375
21
2.743
0
LINE
8
top_outsideCutPath
10
6.915375
20
2.743
11
6.664625
21
2.743
0
LINE
8
top_outsideCutPath
10
6.664625
20
2.743
11
6.664625
21
2.861
0
LINE
8
top_outsideCutPath
10
6.664625
20
2.861
11
6.413875
21
2.861
0
LINE
8
top_outsideCutPath
10
6.413875
20
2.861
11
6.413875
21
2.743
0
LINE
8
top_outsideCutPath
10
6.413875
20
2.743
11
6.163125
21
2.743
0
LINE
8
top_outsideCutPath
10
6.163125
20
2.743
11
6.163125
21
2.861
0
LINE
8
top_outsideCutPath
10
6.163125
20
2.861
11
5.912375
21
2.861
0
LINE
8
top_outsideCutPath
10
5.912375
20
2.861
11
5.912375
21
2.743
0
LINE
8
top_outsideCutPath
10
5.912375
20
2.743
11
5.661625
21
2.743
0
LINE
8
top_outsideCutPath
10
5.661625
20
2.743
11
5.64
21
2.743
0
LINE
8
back_outsideCutPath
10
0
20
14.122
11
0
21
13.788375
0
LINE
8
back_outsideCutPath
10
0
20
13.788375
11
0.118
21
13.788375
0
LINE
8
back_outsideCutPath
10
0.118
20
13.788375
11
0.118
21
13.537625
0
LINE
8
back_outsideCutPath
10
0.118
20
13.537625
11
0
21
13.537625
0
LINE
8
back_outsideCutPath
10
0
20
13.537625
11
0
21
13.286875
0
LINE
8
back_outsideCutPath
10
0
20
13.286875
11
0.118
21
13.286875
0
LINE
8
back_outsideCutPath
10
0.118
20
13.286875
11
0.118
21
13.036125
0
LINE
8
back_outsideCutPath
10
0.118
20
13.036125
11
0
21
13.036125
0
LINE
8
back_outsideCutPath
10
0
20
13.036125
11
0
21
12.785375
0
LINE
8
back_outsideCutPath
10
0
20
12.785375
11
0.118
21
12.785375
0
LINE
8
back_outsideCutPath
10
0.118
20
12.785375
11
0.118
21
12.534625
0
LINE
8
back_outsideCutPath
10
0.118
20
12.534625
11
0
21
12.534625
0
LINE
8
back_outsideCutPath
10
0
20
12.534625
11
0
21
12.283875
0
LINE
8
back_outsideCutPath
10
0
20
12.283875
11
0.118
21
12.283875
0
LINE
8
back_outsideCutPath
10
0.118
20
12.283875
11
0.118
21
12.033125
0
LINE
8
back_outsideCutPath
10
0.118
20
12.033125
11
0
21
12.033125
0
LINE
8
back_outsideCutPath
10
0
20
12.033125
11
0
21
11.782375
0
LINE
8
back_outsideCutPath
10
0
20
11.782375
11
0.118
21
11.782375
0
LINE
8
back_outsideCutPath
10
0.118
20
11.782375
11
0.118
21
11.531625
0
LINE
8
back_outsideCutPath
10
0.118
20
11.531625
11
0
21
11.531625
0
LINE
8
back_outsideCutPath
10
0
20
11.531625
11
0
21
11.280875
0
LINE
8
back_outsideCutPath
10
0
20
11.280875
11
0.118
21
11.280875
0
LINE
8
back_outsideCutPath
10
0.118
20
11.280875
11
0.118
21
11.030125
0
LINE
8
back_outsideCutPath
10
0.118
20
11.030125
11
0
21
11.030125
0
LINE
8
back_outsideCutPath
10
0
20
11.030125
11
0
21
10.779375
0
LINE
8
back_outsideCutPath
10
0
20
10.779375
11
0.118
21
10.779375
0
LINE
8
back_outsideCutPath
10
0.118
20
10.779375
11
0.118
21
10.528625
0
LINE
8
back_outsideCutPath
10
0.118
20
10.528625
11
0
21
10.528625
0
LINE
8
back_outsideCutPath
10
0
20
10.528625
11
0
21
10.277875
0
LINE
8
back_outsideCutPath
10
0
20
10.277875
11
0.118
21
10.277875
0
LINE
8
back_outsideCutPath
10
0.118
20
10.277875
11
0.118
21
10.027125
0
LINE
8
back_outsideCutPath
10
0.118
20
10.027125
11
0
21
10.027125
0
LINE
8
back_outsideCutPath
10
0
20
10.027125
11
0
21
9.776375
0
LINE
8
back_outsideCutPath
10
0
20
9.776375
11
0.118
21
9.776375
0
LINE
8
back_outsideCutPath
10
0.118
20
9.776375
11
0.118
21
9.525625
0
LINE
8
back_outsideCutPath
10
0.118
20
9.525625
11
0
21
9.525625
0
LINE
8
back_outsideCutPath
10
0
20
9.525625
11
0
21
9.274875
0
LINE
8
back_outsideCutPath
10
0
20
9.274875
11
0.118
21
9.274875
0
LINE
8
back_outsideCutPath
10
0.118
20
9.274875
11
0.118
21
9.024125
0
LINE
8
back_outsideCutPath
10
0.118
20
9.024125
11
0
21
9.024125
0
LINE
8
back_outsideCutPath
10
0
20
9.024125
11
0
21
8.773375
0
LINE
8
back_outsideCutPath
10
0
20
8.773375
11
0.118
21
8.773375
0
LINE
8
back_outsideCutPath
10
0.118
20
8.773375
11
0.118
21
8.522625
0
LINE
8
back_outsideCutPath
10
0.118
20
8.522625
11
0
21
8.522625
0
LINE
8
back_outsideCutPath
10
0
20
8.522625
11
0
21
8.271875
0
LINE
8
back_outsideCutPath
10
0
20
8.271875
11
0.118
21
8.271875
0
LINE
8
back_outsideCutPath
10
0.118
20
8.271875
11
0.118
21
8.021125
0
LINE
8
back_outsideCutPath
10
0.118
20
8.021125
11
0
21
8.021125
0
LINE
8
back_outsideCutPath
10
0
20
8.021125
11
0
21
7.770375
0
LINE
8
back_outsideCutPath
10
0
20
7.770375
11
0.118
21
7.770375
0
LINE
8
back_outsideCutPath
10
0.118
20
7.770375
11
0.118
21
7.519625
0
LINE
8
back_outsideCutPath
10
0.118
20
7.519625
11
0
21
7.519625
0
LINE
8
back_outsideCutPath
10
0
20
7.519625
11
0
21
7.186
0
LINE
8
back_outsideCutPath
10
0
20
7.186
11
0.390375
21
7.186
0
LINE
8
back_outsideCutPath
10
0.390375
20
7.186
11
0.390375
21
7.304
0
LINE
8
back_outsideCutPath
10
0.390375
20
7.304
11
0.641125
21
7.304
0
LINE
8
back_outsideCutPath
10
0.641125
20
7.304
11
0.641125
21
7.186
0
LINE
8
back_outsideCutPath
10
0.641125
20
7.186
11
0.891875
21
7.186
0
LINE
8
back_outsideCutPath
10
0.891875
20
7.186
11
0.891875
21
7.304
0
LINE
8
back_outsideCutPath
10
0.891875
20
7.304
11
1.142625
21
7.304
0
LINE
8
back_outsideCutPath
10
1.142625
20
7.304
11
1.142625
21
7.186
0
LINE
8
back_outsideCutPath
10
1.142625
20
7.186
11
1.393375
21
7.186
0
LINE
8
back_outsideCutPath
10
1.393375
20
7.186
11
1.393375
21
7.304
0
LINE
8
back_outsideCutPath
10
1.393375
20
7.304
11
1.644125
21
7.304
0
LINE
8
back_outsideCutPath
10
1.644125
20
7.304
11
1.644125
21
7.186
0
LINE
8
back_outsideCutPath
10
1.644125
20
7.186
11
1.894875
21
7.186
0
LINE
8
back_outsideCutPath
10
1.894875
20
7.186
11
1.894875
21
7.304
0
LINE
8
back_outsideCutPath
10
1.894875
20
7.304
11
2.145625
21
7.304
0
LINE
8
back_outsideCutPath
10
2.145625
20
7.304
11
2.145625
21
7.186
0
LINE
8
back_outsideCutPath
10
2.145625
20
7.186
11
2.396375
21
7.186
0
LINE
8
back_outsideCutPath
10
2.396375
20
7.186
11
2.536
21
7.186
0
LINE
8
back_outsideCutPath
10
2.536
20
7.186
11
2.536
21
7.519625
0
LINE
8
back_outsideCutPath
10
2.536
20
7.519625
11
2.418
21
7.519625
0
LINE
8
back_outsideCutPath
10
2.418
20
7.519625
11
2.418
21
7.770375
0
LINE
8
back_outsideCutPath
10
2.418
20
7.770375
11
2.536
21
7.770375
0
LINE
8
back_outsideCutPath
10
2.536
20
7.770375
11
2.536
21
8.021125
0
LINE
8
back_outsideCutPath
10
2.536
20
8.021125
11
2.418
21
8.021125
0
LINE
8
back_outsideCutPath
10
2.418
20
8.021125
11
2.418
21
8.271875
0
LINE
8
back_outsideCutPath
10
2.418
20
8.271875
11
2.536
21
8.271875
0
LINE
8
back_outsideCutPath
10
2.536
20
8.271875
11
2.536
21
8.522625
0
LINE
8
back_outsideCutPath
10
2.536
20
8.522625
11
2.418
21
8.522625
0
LINE
8
back_outsideCutPath
10
2.418
20
8.522625
11
2.418
21
8.773375
0
LINE
8
back_outsideCutPath
10
2.418
20
8.773375
11
2.536
21
8.773375
0
LINE
8
back_outsideCutPath
10
2.536
20
8.773375
11
2.536
21
9.024125
0
LINE
8
back_outsideCutPath
10
2.536
20
9.024125
11
2.418
21
9.024125
0
LINE
8
back_outsideCutPath
10
2.418
20
9.024125
11
2.418
21
9.274875
0
LINE
8
back_outsideCutPath
10
2.418
20
9.274875
11
2.536
21
9.274875
0
LINE
8
back_outsideCutPath
10
2.536
20
9.274875
11
2.536
21
9.525625
0
LINE
8
back_outsideCutPath
10
2.536
20
9.525625
11
2.418
21
9.525625
0
LINE
8
back_outsideCutPath
10
2.418
20
9.525625
11
2.418
21
9.776375
0
LINE
8
back_outsideCutPath
10
2.418
20
9.776375
11
2.536
21
9.776375
0
LINE
8
back_outsideCutPath
10
2.536
20
9.776375
11
2.536
21
10.027125
0
LINE
8
back_outsideCutPath
10
2.536
20
10.027125
11
2.418
21
10.027125
0
LINE
8
back_outsideCutPath
10
2.418
20
10.027125
11
2.418
21
10.277875
0
LINE
8
back_outsideCutPath
10
2.418
20
10.277875
11
2.536
21
10.277875
0
LINE
8
back_outsideCutPath
10
2.536
20
10.277875
11
2.536
21
10.528625
0
LINE
8
back_outsideCutPath
10
2.536
20
10.528625
11
2.418
21
10.528625
0
LINE
8
back_outsideCutPath
10
2.418
20
10.528625
11
2.418
21
10.779375
0
LINE
8
back_outsideCutPath
10
2.418
20
10.779375
11
2.536
21
10.779375
0
LINE
8
back_outsideCutPath
10
2.536
20
10.779375
11
2.536
21
11.030125
0
LINE
8
back_outsideCutPath
10
2.536
20
11.030125
11
2.418
21
11.030125
0
LINE
8
back_outsideCutPath
10
2.418
20
11.030125
11
2.418
21
11.280875
0
LINE
8
back_outsideCutPath
10
2.418
20
11.280875
11
2.536
21
11.280875
0
LINE
8
back_outsideCutPath
10
2.536
20
11.280875
11
2.536
21
11.531625
0
LINE
8
back_outsideCutPath
10
2.536
20
11.531625
11
2.418
21
11.531625
0
LINE
8
back_outsideCutPath
10
2.418
20
11.531625
11
2.418
21
11.782375
0
LINE
8
back_outsideCutPath
10
2.418
20
11.782375
11
2.536
21
11.782375
0
LINE
8
back_outsideCutPath
10
2.536
20
11.782375
11
2.536
21
12.033125
0
LINE
8
back_outsideCutPath
10
2.536
20
12.033125
11
2.418
21
12.033125
0
LINE
8
back_outsideCutPath
10
2.418
20
12.033125
11
2.418
21
12.283875
0
LINE
8
back_outsideCutPath
10
2.418
20
12.283875
11
2.536
21
12.283875
0
LINE
8
back_outsideCutPath
10
2.536
20
12.283875
11
2.536
21
12.534625
0
LINE
8
back_outsideCutPath
10
2.536
20
12.534625
11
2.418
21
12.534625
0
LINE
8
back_outsideCutPath
10
2.418
20
12.534625
11
2.418
21
12.785375
0
LINE
8
back_outsideCutPath
10
2.418
20
12.785375
11
2.536
21
12.785375
0
LINE
8
back_outsideCutPath
10
2.536
20
12.785375
11
2.536
21
13.036125
0
LINE
8
back_outsideCutPath
10
2.536
20
13.036125
11
2.418
21
13.036125
0
LINE
8
back_outsideCutPath
10
2.418
20
13.036125
11
2.418
21
13.286875
0
LINE
8
back_outsideCutPath
10
2.418
20
13.286875
11
2.536
21
13.286875
0
LINE
8
back_outsideCutPath
10
2.536
20
13.286875
11
2.536
21
13.537625
0
LINE
8
back_outsideCutPath
10
2.536
20
13.537625
11
2.418
21
13.537625
0
LINE
8
back_outsideCutPath
10
2.418
20
13.537625
11
2.418
21
13.788375
0
LINE
8
back_outsideCutPath
10
2.418
20
13.788375
11
2.536
21
13.788375
0
LINE
8
back_outsideCutPath
10
2.536
20
13.788375
11
2.536
21
14.122
0
LINE
8
back_outsideCutPath
10
2.536
20
14.122
11
2.145625
21
14.122
0
LINE
8
back_outsideCutPath
10
2.145625
20
14.122
11
2.145625
21
14.004
0
LINE
8
back_outsideCutPath
10
2.145625
20
14.004
11
1.894875
21
14.004
0
LINE
8
back_outsideCutPath
10
1.894875
20
14.004
11
1.894875
21
14.122
0
LINE
8
back_outsideCutPath
10
1.894875
20
14.122
11
1.644125
21
14.122
0
LINE
8
back_outsideCutPath
10
1.644125
20
14.122
11
1.644125
21
14.004
0
LINE
8
back_outsideCutPath
10
1.644125
20
14.004
11
1.393375
21
14.004
0
LINE
8
back_outsideCutPath
10
1.393375
20
14.004
11
1.393375
21
14.122
0
LINE
8
back_outsideCutPath
10
1.393375
20
14.122
11
1.142625
21
14.122
0
LINE
8
back_outsideCutPath
10
1.142625
20
14.122
11
1.142625
21
14.004
0
LINE
8
back_outsideCutPath
10
1.142625
20
14.004
11
0.891875
21
14.004
0
LINE
8
back_outsideCutPath
10
0.891875
20
14.004
11
0.891875
21
14.122
0
LINE
8
back_outsideCutPath
10
0.891875
20
14.122
11
0.641125
21
14.122
0
LINE
8
back_outsideCutPath
10
0.641125
20
14.122
11
0.641125
21
14.004
0
LINE
8
back_outsideCutPath
10
0.641125
20
14.004
11
0.390375
21
14.004
0
LINE
8
back_outsideCutPath
10
0.390375
20
14.004
11
0.390375
21
14.122
0
LINE
8
back_outsideCutPath
10
0.390375
20
14.122
11
0.139625
21
14.122
0
LINE
8
back_outsideCutPath
10
0.139625
20
14.122
11
0
21
14.122
0
LINE
8
right_outsideCutPath
10
2.779
20
14.122
11
2.779
21
13.788375
0
LINE
8
right_outsideCutPath
10
2.779
20
13.788375
11
2.661
21
13.788375
0
LINE
8
right_outsideCutPath
10
2.661
20
13.788375
11
2.661
21
13.537625
0
LINE
8
right_outsideCutPath
10
2.661
20
13.537625
11
2.779
21
13.537625
0
LINE
8
right_outsideCutPath
10
2.779
20
13.537625
11
2.779
21
13.286875
0
LINE
8
right_outsideCutPath
10
2.779
20
13.286875
11
2.661
21
13.286875
0
LINE
8
right_outsideCutPath
10
2.661
20
13.286875
11
2.661
21
13.036125
0
LINE
8
right_outsideCutPath
10
2.661
20
13.036125
11
2.779
21
13.036125
0
LINE
8
right_outsideCutPath
10
2.779
20
13.036125
11
2.779
21
12.785375
0
LINE
8
right_outsideCutPath
10
2.779
20
12.785375
11
2.661
21
12.785375
0
LINE
8
right_outsideCutPath
10
2.661
20
12.785375
11
2.661
21
12.534625
0
LINE
8
right_outsideCutPath
10
2.661
20
12.534625
11
2.779
21
12.534625
0
LINE
8
right_outsideCutPath
10
2.779
20
12.534625
11
2.779
21
12.283875
0
LINE
8
right_outsideCutPath
10
2.779
20
12.283875
11
2.661
21
12.283875
0
LINE
8
right_outsideCutPath
10
2.661
20
12.283875
11
2.661
21
12.033125
0
LINE
8
right_outsideCutPath
10
2.661
20
12.033125
11
2.779
21
12.033125
0
LINE
8
right_outsideCutPath
10
2.779
20
12.033125
11
2.779
21
11.782375
0
LINE
8
right_outsideCutPath
10
2.779
20
11.782375
11
2.661
21
11.782375
0
LINE
8
right_outsideCutPath
10
2.661
20
11.782375
11
2.661
21
11.531625
0
LINE
8
right_outsideCutPath
10
2.661
20
11.531625
11
2.779
21
11.531625
0
LINE
8
right_outsideCutPath
10
2.779
20
11.531625
11
2.779
21
11.280875
0
LINE
8
right_outsideCutPath
10
2.779
20
11.280875
11
2.661
21
11.280875
0
LINE
8
right_outsideCutPath
10
2.661
20
11.280875
11
2.661
21
11.030125
0
LINE
8
right_outsideCutPath
10
2.661
20
11.030125
11
2.779
21
11.030125
0
LINE
8
right_outsideCutPath
10
2.779
20
11.030125
11
2.779
21
10.779375
0
LINE
8
right_outsideCutPath
10
2.779
20
10.779375
11
2.661
21
10.779375
0
LINE
8
right_outsideCutPath
10
2.661
20
10.779375
11
2.661
21
10.528625
0
LINE
8
right_outsideCutPath
10
2.661
20
10.528625
11
2.779
21
10.528625
0
LINE
8
right_outsideCutPath
10
2.779
20
10.528625
11
2.779
21
10.277875
0
LINE
8
right_outsideCutPath
10
2.779
20
10.277875
11
2.661
21
10.277875
0
LINE
8
right_outsideCutPath
10
2.661
20
10.277875
11
2.661
21
10.027125
0
LINE
8
right_outsideCutPath
10
2.661
20
10.027125
11
2.779
21
10.027125
0
LINE
8
right_outsideCutPath
10
2.779
20
10.027125
11
2.779
21
9.776375
0
LINE
8
right_outsideCutPath
10
2.779
20
9.776375
11
2.661
21
9.776375
0
LINE
8
right_outsideCutPath
10
2.661
20
9.776375
11
2.661
21
9.525625
0
LINE
8
right_outsideCutPath
10
2.661
20
9.525625
11
2.779
21
9.525625
0
LINE
8
right_outsideCutPath
10
2.779
20
9.525625
11
2.779
21
9.274875
0
LINE
8
right_outsideCutPath
10
2.779
20
9.274875
11
2.661
21
9.274875
0
LINE
8
right_outsideCutPath
10
2.661
20
9.274875
11
2.661
21
9.024125
0
LINE
8
right_outsideCutPath
10
2.661
20
9.024125
11
2.779
21
9.024125
0
LINE
8
right_outsideCutPath
10
2.779
20
9.024125
11
2.779
21
8.773375
0
LINE
8
right_outsideCutPath
10
2.779
20
8.773375
11
2.661
21
8.773375
0
LINE
8
right_outsideCutPath
10
2.661
20
8.773375
11
2.661
21
8.522625
0
LINE
8
right_outsideCutPath
10
2.661
20
8.522625
11
2.779
21
8.522625
0
LINE
8
right_outsideCutPath
10
2.779
20
8.522625
11
2.779
21
8.271875
0
LINE
8
right_outsideCutPath
10
2.779
20
8.271875
11
2.661
21
8.271875
0
LINE
8
right_outsideCutPath
10
2.661
20
8.271875
11
2.661
21
8.021125
0
LINE
8
right_outsideCutPath
10
2.661
20
8.021125
11
2.779
21
8.021125
0
LINE
8
right_outsideCutPath
10
2.779
20
8.021125
11
2.779
21
7.770375
0
LINE
8
right_outsideCutPath
10
2.779
20
7.770375
11
2.661
21
7.770375
0
LINE
8
right_outsideCutPath
10
2.661
20
7.770375
11
2.661
21
7.519625
0
LINE
8
right_outsideCutPath
10
2.661
20
7.519625
11
2.779
21
7.519625
0
LINE
8
right_outsideCutPath
10
2.779
20
7.519625
11
2.779
21
7.186
0
LINE
8
right_outsideCutPath
10
2.779
20
7.186
11
2.900625
21
7.186
0
LINE
8
right_outsideCutPath
10
2.900625
20
7.186
11
2.900625
21
7.304
0
LINE
8
right_outsideCutPath
10
2.900625
20
7.304
11
3.151375
21
7.304
0
LINE
8
right_outsideCutPath
10
3.151375
20
7.304
11
3.151375
21
7.186
0
LINE
8
right_outsideCutPath
10
3.151375
20
7.186
11
3.402125
21
7.186
0
LINE
8
right_outsideCutPath
10
3.402125
20
7.186
11
3.402125
21
7.304
0
LINE
8
right_outsideCutPath
10
3.402125
20
7.304
11
3.652875
21
7.304
0
LINE
8
right_outsideCutPath
10
3.652875
20
7.304
11
3.652875
21
7.186
0
LINE
8
right_outsideCutPath
10
3.652875
20
7.186
11
3.903625
21
7.186
0
LINE
8
right_outsideCutPath
10
3.903625
20
7.186
11
3.903625
21
7.304
0
LINE
8
right_outsideCutPath
10
3.903625
20
7.304
11
4.154375
21
7.304
0
LINE
8
right_outsideCutPath
10
4.154375
20
7.304
11
4.154375
21
7.186
0
LINE
8
right_outsideCutPath
10
4.154375
20
7.186
11
4.405125
21
7.186
0
LINE
8
right_outsideCutPath
10
4.405125
20
7.186
11
4.405125
21
7.304
0
LINE
8
right_outsideCutPath
10
4.405125
20
7.304
11
4.655875
21
7.304
0
LINE
8
right_outsideCutPath
10
4.655875
20
7.304
11
4.655875
21
7.186
0
LINE
8
right_outsideCutPath
10
4.655875
20
7.186
11
4.906625
21
7.186
0
LINE
8
right_outsideCutPath
10
4.906625
20
7.186
11
4.906625
21
7.304
0
LINE
8
right_outsideCutPath
10
4.906625
20
7.304
11
5.157375
21
7.304
0
LINE
8
right_outsideCutPath
10
5.157375
20
7.304
11
5.157375
21
7.186
0
LINE
8
right_outsideCutPath
10
5.157375
20
7.186
11
5.279
21
7.186
0
LINE
8
right_outsideCutPath
10
5.279
20
7.186
11
5.279
21
7.519625
0
LINE
8
right_outsideCutPath
10
5.279
20
7.519625
11
5.397
21
7.519625
0
LINE
8
right_outsideCutPath
10
5.397
20
7.519625
11
5.397
21
7.770375
0
LINE
8
right_outsideCutPath
10
5.397
20
7.770375
11
5.279
21
7.770375
0
LINE
8
right_outsideCutPath
10
5.279
20
7.770375
11
5.279
21
8.021125
0
LINE
8
right_outsideCutPath
10
5.279
20
8.021125
11
5.397
21
8.021125
0
LINE
8
right_outsideCutPath
10
5.397
20
8.021125
11
5.397
21
8.271875
0
LINE
8
right_outsideCutPath
10
5.397
20
8.271875
11
5.279
21
8.271875
0
LINE
8
right_outsideCutPath
10
5.279
20
8.271875
11
5.279
21
8.522625
0
LINE
8
right_outsideCutPath
10
5.279
20
8.522625
11
5.397
21
8.522625
0
LINE
8
right_outsideCutPath
10
5.397
20
8.522625
11
5.397
21
8.773375
0
LINE
8
right_outsideCutPath
10
5.397
20
8.773375
11
5.279
21
8.773375
0
LINE
8
right_outsideCutPath
10
5.279
20
8.773375
11
5.279
21
9.024125
0
LINE
8
right_outsideCutPath
10
5.279
20
9.024125
11
5.397
21
9.024125
0
LINE
8
right_outsideCutPath
10
5.397
20
9.024125
11
5.397
21
9.274875
0
LINE
8
right_outsideCutPath
10
5.397
20
9.274875
11
5.279
21
9.274875
0
LINE
8
right_outsideCutPath
10
5.279
20
9.274875
11
5.279
21
9.525625
0
LINE
8
right_outsideCutPath
10
5.279
20
9.525625
11
5.397
21
9.525625
0
LINE
8
right_outsideCutPath
10
5.397
20
9.525625
11
5.397
21
9.776375
0
LINE
8
right_outsideCutPath
10
5.397
20
9.776375
11
5.279
21
9.776375
0
LINE
8
right_outsideCutPath
10
5.279
20
9.776375
11
5.279
21
10.027125
0
LINE
8
right_outsideCutPath
10
5.279
20
10.027125
11
5.397
21
10.027125
0
LINE
8
right_outsideCutPath
10
5.397
20
10.027125
11
5.397
21
10.277875
0
LINE
8
right_outsideCutPath
10
5.397
20
10.277875
11
5.279
21
10.277875
0
LINE
8
right_outsideCutPath
10
5.279
20
10.277875
11
5.279
21
10.528625
0
LINE
8
right_outsideCutPath
10
5.279
20
10.528625
11
5.397
21
10.528625
0
LINE
8
right_outsideCutPath
10
5.397
20
10.528625
11
5.397
21
10.779375
0
LINE
8
right_outsideCutPath
10
5.397
20
10.779375
11
5.279
21
10.779375
0
LINE
8
right_outsideCutPath
10
5.279
20
10.779375
11
5.279
21
11.030125
0
LINE
8
right_outsideCutPath
10
5.279
20
11.030125
11
5.397
21
11.030125
0
LINE
8
right_outsideCutPath
10
5.397
20
11.030125
11
5.397
21
11.280875
0
LINE
8
right_outsideCutPath
10
5.397
20
11.280875
11
5.279
21
11.280875
0
LINE
8
right_outsideCutPath
10
5.279
20
11.280875
11
5.279
21
11.531625
0
LINE
8
right_outsideCutPath
10
5.279
20
11.531625
11
5.397
21
11.531625
0
LINE
8
right_outsideCutPath
10
5.397
20
11.531625
11
5.397
21
11.782375
0
LINE
8
right_outsideCutPath
10
5.397
20
11.782375
11
5.279
21
11.782375
0
LINE
8
right_outsideCutPath
10
5.279
20
11.782375
11
5.279
21
12.033125
0
LINE
8
right_outsideCutPath
10
5.279
20
12.033125
11
5.397
21
12.033125
0
LINE
8
right_outsideCutPath
10
5.397
20
12.033125
11
5.397
21
12.283875
0
LINE
8
right_outsideCutPath
10
5.397
20
12.283875
11
5.279
21
12.283875
0
LINE
8
right_outsideCutPath
10
5.279
20
12.283875
11
5.279
21
12.534625
0
LINE
8
right_outsideCutPath
10
5.279
20
12.534625
11
5.397
21
12.534625
0
LINE
8
right_outsideCutPath
10
5.397
20
12.534625
11
5.397
21
12.785375
0
LINE
8
right_outsideCutPath
10
5.397
20
12.785375
11
5.279
21
12.785375
0
LINE
8
right_outsideCutPath
10
5.279
20
12.785375
11
5.279
21
13.036125
0
LINE
8
right_outsideCutPath
10
5.279
20
13.036125
11
5.397
21
13.036125
0
LINE
8
right_outsideCutPath
10
5.397
20
13.036125
11
5.397
21
13.286875
0
LINE
8
right_outsideCutPath
10
5.397
20
13.286875
11
5.279
21
13.286875
0
LINE
8
right_outsideCutPath
10
5.279
20
13.286875
11
5.279
21
13.537625
0
LINE
8
right_outsideCutPath
10
5.279
20
13.537625
11
5.397
21
13.537625
0
LINE
8
right_outsideCutPath
10
5.397
20
13.537625
11
5.397
21
13.788375
0
LINE
8
right_outsideCutPath
10
5.397
20
13.788375
11
5.279
21
13.788375
0
LINE
8
right_outsideCutPath
10
5.279
20
13.788375
11
5.279
21
14.122
0
LINE
8
right_outsideCutPath
10
5.279
20
14.122
11
5.157375
21
14.122
0
LINE
8
right_outsideCutPath
10
5.157375
20
14.122
11
5.157375
21
14.004
0
LINE
8
right_outsideCutPath
10
5.157375
20
14.004
11
4.906625
21
14.004
0
LINE
8
right_outsideCutPath
10
4.906625
20
14.004
11
4.906625
21
14.122
0
LINE
8
right_outsideCutPath
10
4.906625
20
14.122
11
4.655875
21
14.122
0
LINE
8
right_outsideCutPath
10
4.655875
20
14.122
11
4.655875
21
14.004
0
LINE
8
right_outsideCutPath
10
4.655875
20
14.004
11
4.405125
21
14.004
0
LINE
8
right_outsideCutPath
10
4.405125
20
14.004
11
4.405125
21
14.122
0
LINE
8
right_outsideCutPath
10
4.405125
20
14.122
11
4.154375
21
14.122
0
LINE
8
right_outsideCutPath
10
4.154375
20
14.122
11
4.154375
21
14.004
0
LINE
8
right_outsideCutPath
10
4.154375
20
14.004
11
3.903625
21
14.004
0
LINE
8
right_outsideCutPath
10
3.903625
20
14.004
11
3.903625
21
14.122
0
LINE
8
right_outsideCutPath
10
3.903625
20
14.122
11
3.652875
21
14.122
0
LINE
8
right_outsideCutPath
10
3.652875
20
14.122
11
3.652875
21
14.004
0
LINE
8
right_outsideCutPath
10
3.652875
20
14.004
11
3.402125
21
14.004
0
LINE
8
right_outsideCutPath
10
3.402125
20
14.004
11
3.402125
21
14.122
0
LINE
8
right_outsideCutPath
10
3.402125
20
14.122
11
3.151375
21
14.122
0
LINE
8
right_outsideCutPath
10
3.151375
20
14.122
11
3.151375
21
14.004
0
LINE
8
right_outsideCutPath
10
3.151375
20
14.004
11
2.900625
21
14.004
0
LINE
8
right_outsideCutPath
10
2.900625
20
14.004
11
2.900625
21
14.122
0
LINE
8
right_outsideCutPath
10
2.900625
20
14.122
11
2.779
21
14.122
0
LINE
8
bottom_outsideCutPath
10
5.64
20
5.604
11
5.64
21
5.482375
0
LINE
8
bottom_outsideCutPath
10
5.64
20
5.482375
11
5.522
21
5.482375
0
LINE
8
bottom_outsideCutPath
10
5.522
20
5.482375
11
5.522
21
5.231625
0
LINE
8
bottom_outsideCutPath
10
5.522
20
5.231625
11
5.64
21
5.231625
0
LINE
8
bottom_outsideCutPath
10
5.64
20
5.231625
11
5.64
21
4.980875
0
LINE
8
bottom_outsideCutPath
10
5.64
20
4.980875
11
5.522
21
4.980875
0
LINE
8
bottom_outsideCutPath
10
5.522
20
4.980875
11
5.522
21
4.730125
0
LINE
8
bottom_outsideCutPath
10
5.522
20
4.730125
11
5.64
21
4.730125
0
LINE
8
bottom_outsideCutPath
10
5.64
20
4.730125
11
5.64
21
4.479375
0
LINE
8
bottom_outsideCutPath
10
5.64
20
4.479375
11
5.522
21
4.479375
0
LINE
8
bottom_outsideCutPath
10
5.522
20
4.479375
11
5.522
21
4.228625
0
LINE
8
bottom_outsideCutPath
10
5.522
20
4.228625
11
5.64
21
4.228625
0
LINE
8
bottom_outsideCutPath
10
5.64
20
4.228625
11
5.64
21
3.977875
0
LINE
8
bottom_outsideCutPath
10
5.64
20
3.977875
11
5.522
21
3.977875
0
LINE
8
bottom_outsideCutPath
10
5.522
20
3.977875
11
5.522
21
3.727125
0
LINE
8
bottom_outsideCutPath
10
5.522
20
3.727125
11
5.64
21
3.727125
0
LINE
8
bottom_outsideCutPath
10
5.64
20
3.727125
11
5.64
21
3.476375
0
LINE
8
bottom_outsideCutPath
10
5.64
20
3.476375
11
5.522
21
3.476375
0
LINE
8
bottom_outsideCutPath
10
5.522
20
3.476375
11
5.522
21
3.225625
0
LINE
8
bottom_outsideCutPath
10
5.522
20
3.225625
11
5.64
21
3.225625
0
LINE
8
bottom_outsideCutPath
10
5.64
20
3.225625
11
5.64
21
3.104
0
LINE
8
bottom_outsideCutPath
10
5.64
20
3.104
11
5.912375
21
3.104
0
LINE
8
bottom_outsideCutPath
10
5.912375
20
3.104
11
5.912375
21
2.986
0
LINE
8
bottom_outsideCutPath
10
5.912375
20
2.986
11
6.163125
21
2.986
0
LINE
8
bottom_outsideCutPath
10
6.163125
20
2.986
11
6.163125
21
3.104
0
LINE
8
bottom_outsideCutPath
10
6.163125
20
3.104
11
6.413875
21
3.104
0
LINE
8
bottom_outsideCutPath
10
6.413875
20
3.104
11
6.413875
21
2.986
0
LINE
8
bottom_outsideCutPath
10
6.413875
20
2.986
11
6.664625
21
2.986
0
LINE
8
bottom_outsideCutPath
10
6.664625
20
2.986
11
6.664625
21
3.104
0
LINE
8
bottom_outsideCutPath
10
6.664625
20
3.104
11
6.915375
21
3.104
0
LINE
8
bottom_outsideCutPath
10
6.915375
20
3.104
11
6.915375
21
2.986
0
LINE
8
bottom_outsideCutPath
10
6.915375
20
2.986
11
7.166125
21
2.986
0
LINE
8
bottom_outsideCutPath
10
7.166125
20
2.986
11
7.166125
21
3.104
0
LINE
8
bottom_outsideCutPath
10
7.166125
20
3.104
11
7.416875
21
3.104
0
LINE
8
bottom_outsideCutPath
10
7.416875
20
3.104
11
7.416875
21
2.986
0
LINE
8
bottom_outsideCutPath
10
7.416875
20
2.986
11
7.667625
21
2.986
0
LINE
8
bottom_outsideCutPath
10
7.667625
20
2.986
11
7.667625
21
3.104
0
LINE
8
bottom_outsideCutPath
10
7.667625
20
3.104
11
7.918375
21
3.104
0
LINE
8
bottom_outsideCutPath
10
7.918375
20
3.104
11
7.94
21
3.104
0
LINE
8
bottom_outsideCutPath
10
7.94
20
3.104
11
7.94
21
3.225625
0
LINE
8
bottom_outsideCutPath
10
7.94
20
3.225625
11
8.058
21
3.225625
0
LINE
8
bottom_outsideCutPath
10
8.058
20
3.225625
11
8.058
21
3.476375
0
LINE
8
bottom_outsideCutPath
10
8.058
20
3.476375
11
7.94
21
3.476375
0
LINE
8
bottom_outsideCutPath
10
7.94
20
3.476375
11
7.94
21
3.727125
0
LINE
8
bottom_outsideCutPath
10
7.94
20
3.727125
11
8.058
21
3.727125
0
LINE
8
bottom_outsideCutPath
10
8.058
20
3.727125
11
8.058
21
3.977875
0
LINE
8
bottom_outsideCutPath
10
8.058
20
3.977875
11
7.94
21
3.977875
0
LINE
8
bottom_outsideCutPath
10
7.94
20
3.977875
11
7.94
21
4.228625
0
LINE
8
bottom_outsideCutPath
10
7.94
20
4.228625
11
8.058
21
4.228625
0
LINE
8
bottom_outsideCutPath
10
8.058
20
4.228625
11
8.058
21
4.479375
0
LINE
8
bottom_outsideCutPath
10
8.058
20
4.479375
11
7.94
21
4.479375
0
LINE
8
bottom_outsideCutPath
10
7.94
20
4.479375
11
7.94
21
4.730125
0
LINE
8
bottom_outsideCutPath
10
7.94
20
4.730125
11
8.058
21
4.730125
0
LINE
8
bottom_outsideCutPath
10
8.058
20
4.730125
11
8.058
21
4.980875
0
LINE
8
bottom_outsideCutPath
10
8.058
20
4.980875
11
7.94
21
4.980875
0
LINE
8
bottom_outsideCutPath
10
7.94
20
4.980875
11
7.94
21
5.231625
0
LINE
8
bottom_outsideCutPath
10
7.94
20
5.231625
11
8.058
21
5.231625
0
LINE
8
bottom_outsideCutPath
10
8.058
20
5.231625
11
8.058
21
5.482375
0
LINE
8
bottom_outsideCutPath
10
8.058
20
5.482375
11
7.94
21
5.482375
0
LINE
8
bottom_outsideCutPath
10
7.94
20
5.482375
11
7.94
21
5.604
0
LINE
8
bottom_outsideCutPath
10
7.94
20
5.604
11
7.667625
21
5.604
0
LINE
8
bottom_outsideCutPath
10
7.667625
20
5.604
11
7.667625
21
5.722
0
LINE
8
bottom_outsideCutPath
10
7.667625
20
5.722
11
7.416875
21
5.722
0
LINE
8
bottom_outsideCutPath
10
7.416875
20
5.722
11
7.416875
21
5.604
0
LINE
8
bottom_outsideCutPath
10
7.416875
20
5.604
11
7.166125
21
5.604
0
LINE
8
bottom_outsideCutPath
10
7.166125
20
5.604
11
7.166125
21
5.722
0
LINE
8
bottom_outsideCutPath
10
7.166125
20
5.722
11
6.915375
21
5.722
0
LINE
8
bottom_outsideCutPath
10
6.915375
20
5.722
11
6.915375
21
5.604
0
LINE
8
bottom_outsideCutPath
10
6.915375
20
5.604
11
6.664625
21
5.604
0
LINE
8
bottom_outsideCutPath
10
6.664625
20
5.604
11
6.664625
21
5.722
0
LINE
8
bottom_outsideCutPath
10
6.664625
20
5.722
11
6.413875
21
5.722
0
LINE
8
bottom_outsideCutPath
10
6.413875
20
5.722
11
6.413875
21
5.604
0
LINE
8
bottom_outsideCutPath
10
6.413875
20
5.604
11
6.163125
21
5.604
0
LINE
8
bottom_outsideCutPath
10
6.163125
20
5.604
11
6.163125
21
5.722
0
LINE
8
bottom_outsideCutPath
10
6.163125
20
5.722
11
5.912375
21
5.722
0
LINE
8
bottom_outsideCutPath
10
5.912375
20
5.722
11
5.912375
21
5.604
0
LINE
8
bottom_outsideCutPath
10
5.912375
20
5.604
11
5.661625
21
5.604
0
LINE
8
bottom_outsideCutPath
10
5.661625
20
5.604
11
5.64
21
5.604
0
ENDSEC
0
EOF