<svg width="8.058in" height="13.997in" viewBox="0 0 8.058 13.997" xmlns="http://www.w3.org/2000/svg" version="1.1" preserveAspectRatio="xMidYMid meet"><g id="svgGroup" stroke-linecap="round" fill-rule="evenodd" font-size="9pt" stroke="#000" stroke-width="0.25mm" fill="none" style="stroke:#000;stroke-width:0.25mm;fill:none"><path d="M 0 7.061 L 0 7.395 L 0.118 7.395 L 0.118 7.645 L 0 7.645 L 0 7.896 L 0.118 7.896 L 0.118 8.147 L 0 8.147 L 0 8.398 L 0.118 8.398 L 0.118 8.648 L 0 8.648 L 0 8.899 L 0.118 8.899 L 0.118 9.15 L 0 9.15 L 0 9.401 L 0.118 9.401 L 0.118 9.651 L 0 9.651 L 0 9.902 L 0.118 9.902 L 0.118 10.153 L 0 10.153 L 0 10.404 L 0.118 10.404 L 0.118 10.654 L 0 10.654 L 0 10.905 L 0.118 10.905 L 0.118 11.156 L 0 11.156 L 0 11.407 L 0.118 11.407 L 0.118 11.657 L 0 11.657 L 0 11.908 L 0.118 11.908 L 0.118 12.159 L 0 12.159 L 0 12.41 L 0.118 12.41 L 0.118 12.66 L 0 12.66 L 0 12.911 L 0.118 12.911 L 0.118 13.162 L 0 13.162 L 0 13.413 L 0.118 13.413 L 0.118 13.663 L 0 13.663 L 0 13.997 L 0.39 13.997 L 0.39 13.879 L 0.641 13.879 L 0.641 13.997 L 0.892 13.997 L 0.892 13.879 L 1.143 13.879 L 1.143 13.997 L 1.393 13.997 L 1.393 13.879 L 1.644 13.879 L 1.644 13.997 L 1.895 13.997 L 1.895 13.879 L 2.146 13.879 L 2.146 13.997 L 2.396 13.997 L 2.536 13.997 L 2.536 13.663 L 2.418 13.663 L 2.418 13.413 L 2.536 13.413 L 2.536 13.162 L 2.418 13.162 L 2.418 12.911 L 2.536 12.911 L 2.536 12.66 L 2.418 12.66 L 2.418 12.41 L 2.536 12.41 L 2.536 12.159 L 2.418 12.159 L 2.418 11.908 L 2.536 11.908 L 2.536 11.657 L 2.418 11.657 L 2.418 11.407 L 2.536 11.407 L 2.536 11.156 L 2.418 11.156 L 2.418 10.905 L 2.536 10.905 L 2.536 10.654 L 2.418 10.654 L 2.418 10.404 L 2.536 10.404 L 2.536 10.153 L 2.418 10.153 L 2.418 9.902 L 2.536 9.902 L 2.536 9.651 L 2.418 9.651 L 2.418 9.401 L 2.536 9.401 L 2.536 9.15 L 2.418 9.15 L 2.418 8.899 L 2.536 8.899 L 2.536 8.648 L 2.418 8.648 L 2.418 8.398 L 2.536 8.398 L 2.536 8.147 L 2.418 8.147 L 2.418 7.896 L 2.536 7.896 L 2.536 7.645 L 2.418 7.645 L 2.418 7.395 L 2.536 7.395 L 2.536 7.061 L 2.146 7.061 L 2.146 7.179 L 1.895 7.179 L 1.895 7.061 L 1.644 7.061 L 1.644 7.179 L 1.393 7.179 L 1.393 7.061 L 1.143 7.061 L 1.143 7.179 L 0.892 7.179 L 0.892 7.061 L 0.641 7.061 L 0.641 7.179 L 0.39 7.179 L 0.39 7.061 L 0.14 7.061 L 0 7.061 Z" id="front_outsideCutPath" stroke="#FF0000" stroke-width="0.1" style="stroke:#FF0000;stroke-width:0.1" vector-effect="non-scaling-stroke"/><path d="M 2.779 7.061 L 2.779 7.395 L 2.661 7.395 L 2.661 7.645 L 2.779 7.645 L 2.779 7.896 L 2.661 7.896 L 2.661 8.147 L 2.779 8.147 L 2.779 8.398 L 2.661 8.398 L 2.661 8.648 L 2.779 8.648 L 2.779 8.899 L 2.661 8.899 L 2.661 9.15 L 2.779 9.15 L 2.779 9.401 L 2.661 9.401 L 2.661 9.651 L 2.779 9.651 L 2.779 9.902 L 2.661 9.902 L 2.661 10.153 L 2.779 10.153 L 2.779 10.404 L 2.661 10.404 L 2.661 10.654 L 2.779 10.654 L 2.779 10.905 L 2.661 10.905 L 2.661 11.156 L 2.779 11.156 L 2.779 11.407 L 2.661 11.407 L 2.661 11.657 L 2.779 11.657 L 2.779 11.908 L 2.661 11.908 L 2.661 12.159 L 2.779 12.159 L 2.779 12.41 L 2.661 12.41 L 2.661 12.66 L 2.779 12.66 L 2.779 12.911 L 2.661 12.911 L 2.661 13.162 L 2.779 13.162 L 2.779 13.413 L 2.661 13.413 L 2.661 13.663 L 2.779 13.663 L 2.779 13.997 L 2.901 13.997 L 2.901 13.879 L 3.151 13.879 L 3.151 13.997 L 3.402 13.997 L 3.402 13.879 L 3.653 13.879 L 3.653 13.997 L 3.904 13.997 L 3.904 13.879 L 4.154 13.879 L 4.154 13.997 L 4.405 13.997 L 4.405 13.879 L 4.656 13.879 L 4.656 13.997 L 4.907 13.997 L 4.907 13.879 L 5.157 13.879 L 5.157 13.997 L 5.279 13.997 L 5.279 13.663 L 5.397 13.663 L 5.397 13.413 L 5.279 13.413 L 5.279 13.162 L 5.397 13.162 L 5.397 12.911 L 5.279 12.911 L 5.279 12.66 L 5.397 12.66 L 5.397 12.41 L 5.279 12.41 L 5.279 12.159 L 5.397 12.159 L 5.397 11.908 L 5.279 11.908 L 5.279 11.657 L 5.397 11.657 L 5.397 11.407 L 5.279 11.407 L 5.279 11.156 L 5.397 11.156 L 5.397 10.905 L 5.279 10.905 L 5.279 10.654 L 5.397 10.654 L 5.397 10.404 L 5.279 10.404 L 5.279 10.153 L 5.397 10.153 L 5.397 9.902 L 5.279 9.902 L 5.279 9.651 L 5.397 9.651 L 5.397 9.401 L 5.279 9.401 L 5.279 9.15 L 5.397 9.15 L 5.397 8.899 L 5.279 8.899 L 5.279 8.648 L 5.397 8.648 L 5.397 8.398 L 5.279 8.398 L 5.279 8.147 L 5.397 8.147 L 5.397 7.896 L 5.279 7.896 L 5.279 7.645 L 5.397 7.645 L 5.397 7.395 L 5.279 7.395 L 5.279 7.061 L 5.157 7.061 L 5.157 7.179 L 4.907 7.179 L 4.907 7.061 L 4.656 7.061 L 4.656 7.179 L 4.405 7.179 L 4.405 7.061 L 4.154 7.061 L 4.154 7.179 L 3.904 7.179 L 3.904 7.061 L 3.653 7.061 L 3.653 7.179 L 3.402 7.179 L 3.402 7.061 L 3.151 7.061 L 3.151 7.179 L 2.901 7.179 L 2.901 7.061 L 2.779 7.061 Z" id="left_outsideCutPath" stroke="#FF0000" stroke-width="0.1" style="stroke:#FF0000;stroke-width:0.1" vector-effect="non-scaling-stroke"/><path d="M 5.64 11.379 L 5.64 11.501 L 5.522 11.501 L 5.522 11.751 L 5.64 11.751 L 5.64 12.002 L 5.522 12.002 L 5.522 12.253 L 5.64 12.253 L 5.64 12.504 L 5.522 12.504 L 5.522 12.754 L 5.64 12.754 L 5.64 13.005 L 5.522 13.005 L 5.522 13.256 L 5.64 13.256 L 5.64 13.507 L 5.522 13.507 L 5.522 13.757 L 5.64 13.757 L 5.64 13.879 L 5.912 13.879 L 5.912 13.997 L 6.163 13.997 L 6.163 13.879 L 6.414 13.879 L 6.414 13.997 L 6.665 13.997 L 6.665 13.879 L 6.915 13.879 L 6.915 13.997 L 7.166 13.997 L 7.166 13.879 L 7.417 13.879 L 7.417 13.997 L 7.668 13.997 L 7.668 13.879 L 7.918 13.879 L 7.94 13.879 L 7.94 13.757 L 8.058 13.757 L 8.058 13.507 L 7.94 13.507 L 7.94 13.256 L 8.058 13.256 L 8.058 13.005 L 7.94 13.005 L 7.94 12.754 L 8.058 12.754 L 8.058 12.504 L 7.94 12.504 L 7.94 12.253 L 8.058 12.253 L 8.058 12.002 L 7.94 12.002 L 7.94 11.751 L 8.058 11.751 L 8.058 11.501 L 7.94 11.501 L 7.94 11.379 L 7.668 11.379 L 7.668 11.261 L 7.417 11.261 L 7.417 11.379 L 7.166 11.379 L 7.166 11.261 L 6.915 11.261 L 6.915 11.379 L 6.665 11.379 L 6.665 11.261 L 6.414 11.261 L 6.414 11.379 L 6.163 11.379 L 6.163 11.261 L 5.912 11.261 L 5.912 11.379 L 5.662 11.379 L 5.64 11.379 Z" id="top_outsideCutPath" stroke="#FF0000" stroke-width="0.1" style="stroke:#FF0000;stroke-width:0.1" vector-effect="non-scaling-stroke"/><path d="M 0 0 L 0 0.334 L 0.118 0.334 L 0.118 0.584 L 0 0.584 L 0 0.835 L 0.118 0.835 L 0.118 1.086 L 0 1.086 L 0 1.337 L 0.118 1.337 L 0.118 1.587 L 0 1.587 L 0 1.838 L 0.118 1.838 L 0.118 2.089 L 0 2.089 L 0 2.34 L 0.118 2.34 L 0.118 2.59 L 0 2.59 L 0 2.841 L 0.118 2.841 L 0.118 3.092 L 0 3.092 L 0 3.343 L 0.118 3.343 L 0.118 3.593 L 0 3.593 L 0 3.844 L 0.118 3.844 L 0.118 4.095 L 0 4.095 L 0 4.346 L 0.118 4.346 L 0.118 4.596 L 0 4.596 L 0 4.847 L 0.118 4.847 L 0.118 5.098 L 0 5.098 L 0 5.349 L 0.118 5.349 L 0.118 5.599 L 0 5.599 L 0 5.85 L 0.118 5.85 L 0.118 6.101 L 0 6.101 L 0 6.352 L 0.118 6.352 L 0.118 6.602 L 0 6.602 L 0 6.936 L 0.39 6.936 L 0.39 6.818 L 0.641 6.818 L 0.641 6.936 L 0.892 6.936 L 0.892 6.818 L 1.143 6.818 L 1.143 6.936 L 1.393 6.936 L 1.393 6.818 L 1.644 6.818 L 1.644 6.936 L 1.895 6.936 L 1.895 6.818 L 2.146 6.818 L 2.146 6.936 L 2.396 6.936 L 2.536 6.936 L 2.536 6.602 L 2.418 6.602 L 2.418 6.352 L 2.536 6.352 L 2.536 6.101 L 2.418 6.101 L 2.418 5.85 L 2.536 5.85 L 2.536 5.599 L 2.418 5.599 L 2.418 5.349 L 2.536 5.349 L 2.536 5.098 L 2.418 5.098 L 2.418 4.847 L 2.536 4.847 L 2.536 4.596 L 2.418 4.596 L 2.418 4.346 L 2.536 4.346 L 2.536 4.095 L 2.418 4.095 L 2.418 3.844 L 2.536 3.844 L 2.536 3.593 L 2.418 3.593 L 2.418 3.343 L 2.536 3.343 L 2.536 3.092 L 2.418 3.092 L 2.418 2.841 L 2.536 2.841 L 2.536 2.59 L 2.418 2.59 L 2.418 2.34 L 2.536 2.34 L 2.536 2.089 L 2.418 2.089 L 2.418 1.838 L 2.536 1.838 L 2.536 1.587 L 2.418 1.587 L 2.418 1.337 L 2.536 1.337 L 2.536 1.086 L 2.418 1.086 L 2.418 0.835 L 2.536 0.835 L 2.536 0.584 L 2.418 0.584 L 2.418 0.334 L 2.536 0.334 L 2.536 0 L 2.146 0 L 2.146 0.118 L 1.895 0.118 L 1.895 0 L 1.644 0 L 1.644 0.118 L 1.393 0.118 L 1.393 0 L 1.143 0 L 1.143 0.118 L 0.892 0.118 L 0.892 0 L 0.641 0 L 0.641 0.118 L 0.39 0.118 L 0.39 0 L 0.14 0 L 0 0 Z" id="back_outsideCutPath" stroke="#FF0000" stroke-width="0.1" style="stroke:#FF0000;stroke-width:0.1" vector-effect="non-scaling-stroke"/><path d="M 2.779 0 L 2.779 0.334 L 2.661 0.334 L 2.661 0.584 L 2.779 0.584 L 2.779 0.835 L 2.661 0.835 L 2.661 1.086 L 2.779 1.086 L 2.779 1.337 L 2.661 1.337 L 2.661 1.587 L 2.779 1.587 L 2.779 1.838 L 2.661 1.838 L 2.661 2.089 L 2.779 2.089 L 2.779 2.34 L 2.661 2.34 L 2.661 2.59 L 2.779 2.59 L 2.779 2.841 L 2.661 2.841 L 2.661 3.092 L 2.779 3.092 L 2.779 3.343 L 2.661 3.343 L 2.661 3.593 L 2.779 3.593 L 2.779 3.844 L 2.661 3.844 L 2.661 4.095 L 2.779 4.095 L 2.779 4.346 L 2.661 4.346 L 2.661 4.596 L 2.779 4.596 L 2.779 4.847 L 2.661 4.847 L 2.661 5.098 L 2.779 5.098 L 2.779 5.349 L 2.661 5.349 L 2.661 5.599 L 2.779 5.599 L 2.779 5.85 L 2.661 5.85 L 2.661 6.101 L 2.779 6.101 L 2.779 6.352 L 2.661 6.352 L 2.661 6.602 L 2.779 6.602 L 2.779 6.936 L 2.901 6.936 L 2.901 6.818 L 3.151 6.818 L 3.151 6.936 L 3.402 6.936 L 3.402 6.818 L 3.653 6.818 L 3.653 6.936 L 3.904 6.936 L 3.904 6.818 L 4.154 6.818 L 4.154 6.936 L 4.405 6.936 L 4.405 6.818 L 4.656 6.818 L 4.656 6.936 L 4.907 6.936 L 4.907 6.818 L 5.157 6.818 L 5.157 6.936 L 5.279 6.936 L 5.279 6.602 L 5.397 6.602 L 5.397 6.352 L 5.279 6.352 L 5.279 6.101 L 5.397 6.101 L 5.397 5.85 L 5.279 5.85 L 5.279 5.599 L 5.397 5.599 L 5.397 5.349 L 5.279 5.349 L 5.279 5.098 L 5.397 5.098 L 5.397 4.847 L 5.279 4.847 L 5.279 4.596 L 5.397 4.596 L 5.397 4.346 L 5.279 4.346 L 5.279 4.095 L 5.397 4.095 L 5.397 3.844 L 5.279 3.844 L 5.279 3.593 L 5.397 3.593 L 5.397 3.343 L 5.279 3.343 L 5.279 3.092 L 5.397 3.092 L 5.397 2.841 L 5.279 2.841 L 5.279 2.59 L 5.397 2.59 L 5.397 2.34 L 5.279 2.34 L 5.279 2.089 L 5.397 2.089 L 5.397 1.838 L 5.279 1.838 L 5.279 1.587 L 5.397 1.587 L 5.397 1.337 L 5.279 1.337 L 5.279 1.086 L 5.397 1.086 L 5.397 0.835 L 5.279 0.835 L 5.279 0.584 L 5.397 0.584 L 5.397 0.334 L 5.279 0.334 L 5.279 0 L 5.157 0 L 5.157 0.118 L 4.907 0.118 L 4.907 0 L 4.656 0 L 4.656 0.118 L 4.405 0.118 L 4.405 0 L 4.154 0 L 4.154 0.118 L 3.904 0.118 L 3.904 0 L 3.653 0 L 3.653 0.118 L 3.402 0.118 L 3.402 0 L 3.151 0 L 3.151 0.118 L 2.901 0.118 L 2.901 0 L 2.779 0 Z" id="right_outsideCutPath" stroke="#FF0000" stroke-width="0.1" style="stroke:#FF0000;stroke-width:0.1" vector-effect="non-scaling-stroke"/><path d="M 5.64 8.518 L 5.64 8.64 L 5.522 8.64 L 5.522 8.89 L 5.64 8.89 L 5.64 9.141 L 5.522 9.141 L 5.522 9.392 L 5.64 9.392 L 5.64 9.643 L 5.522 9.643 L 5.522 9.893 L 5.64 9.893 L 5.64 10.144 L 5.522 10.144 L 5.522 10.395 L 5.64 10.395 L 5.64 10.646 L 5.522 10.646 L 5.522 10.896 L 5.64 10.896 L 5.64 11.018 L 5.912 11.018 L 5.912 11.136 L 6.163 11.136 L 6.163 11.018 L 6.414 11.018 L 6.414 11.136 L 6.665 11.136 L 6.665 11.018 L 6.915 11.018 L 6.915 11.136 L 7.166 11.136 L 7.166 11.018 L 7.417 11.018 L 7.417 11.136 L 7.668 11.136 L 7.668 11.018 L 7.918 11.018 L 7.94 11.018 L 7.94 10.896 L 8.058 10.896 L 8.058 10.646 L 7.94 10.646 L 7.94 10.395 L 8.058 10.395 L 8.058 10.144 L 7.94 10.144 L 7.94 9.893 L 8.058 9.893 L 8.058 9.643 L 7.94 9.643 L 7.94 9.392 L 8.058 9.392 L 8.058 9.141 L 7.94 9.141 L 7.94 8.89 L 8.058 8.89 L 8.058 8.64 L 7.94 8.64 L 7.94 8.518 L 7.668 8.518 L 7.668 8.4 L 7.417 8.4 L 7.417 8.518 L 7.166 8.518 L 7.166 8.4 L 6.915 8.4 L 6.915 8.518 L 6.665 8.518 L 6.665 8.4 L 6.414 8.4 L 6.414 8.518 L 6.163 8.518 L 6.163 8.4 L 5.912 8.4 L 5.912 8.518 L 5.662 8.518 L 5.64 8.518 Z" id="bottom_outsideCutPath" stroke="#FF0000" stroke-width="0.1" style="stroke:#FF0000;stroke-width:0.1" vector-effect="non-scaling-stroke"/></g></svg>